<svg width="32" height="32" viewBox="0 0 32 32" fill="none" xmlns="http://www.w3.org/2000/svg">
<path fill-rule="evenodd" clip-rule="evenodd" d="M32 5.6785C32 2.54235 29.4576 1.15055e-06 26.3215 9.02333e-07L5.6785 0C2.54235 -1.37086e-07 1.15055e-06 2.54235 9.02333e-07 5.6785L0 26.3215C-1.37086e-07 29.4576 2.54235 32 5.6785 32H26.3215C29.4576 32 32 29.4576 32 26.3215V5.6785ZM16.1612 21.2635C16.1612 24.0033 18.39 26.2322 21.1299 26.2322C22.1586 26.2322 23.1152 25.918 23.9088 25.3806L26.3759 27.8477C26.5605 28.0323 26.8027 28.125 27.045 28.125C27.2873 28.125 27.5296 28.0323 27.7141 27.8477C28.0842 27.4776 28.0842 26.8795 27.7141 26.5095L25.2471 24.0424C25.7844 23.2487 26.0986 22.2921 26.0986 21.2635C26.0986 18.5237 23.8698 16.2948 21.1299 16.2948C18.39 16.2948 16.1612 18.5237 16.1612 21.2635ZM23.3 23.4336C23.3212 23.4124 23.3431 23.3925 23.3657 23.3738C23.8862 22.8225 24.2058 22.0797 24.2058 21.2635C24.2058 19.5675 22.8259 18.1876 21.1299 18.1876C19.434 18.1876 18.0541 19.5675 18.0541 21.2635C18.0541 22.9595 19.434 24.3394 21.1299 24.3394C21.9461 24.3394 22.689 24.0198 23.2401 23.4993C23.2589 23.4767 23.2789 23.4548 23.3 23.4336ZM7.88008 5.41107H18.7639C20.2024 5.41107 21.3665 6.57516 21.3665 8.01369V14.4115C21.2908 14.402 21.2056 14.402 21.1299 14.402C17.3443 14.402 14.2684 17.4779 14.2684 21.2635C14.2684 22.7683 14.7511 24.15 15.5839 25.2857H7.88008C6.44155 25.2857 5.27746 24.1217 5.27746 22.6831V8.01369C5.27746 6.57516 6.44155 5.41107 7.88008 5.41107ZM18.7803 11.5497C18.7803 12.3539 18.15 12.8615 17.1233 12.8615C16.2734 12.8615 15.7287 12.5222 15.5633 12.0715C15.5348 11.9974 15.5177 11.9176 15.5177 11.8405C15.5177 11.6124 15.6745 11.4612 15.897 11.4612C16.0738 11.4612 16.1907 11.5297 16.2934 11.7122C16.4274 12.0259 16.7497 12.1685 17.1432 12.1685C17.6053 12.1685 17.919 11.9461 17.919 11.6438C17.919 11.3728 17.7251 11.2188 17.2089 11.1133L16.7725 11.0278C15.9512 10.8652 15.5491 10.4716 15.5491 9.85847C15.5491 9.10557 16.205 8.60646 17.1205 8.60646C17.8734 8.60646 18.4409 8.92306 18.6234 9.45917C18.6434 9.51622 18.6548 9.57615 18.6548 9.65024C18.6548 9.8556 18.5065 9.99536 18.2869 9.99536C18.093 9.99536 17.9732 9.91833 17.8762 9.74156C17.7393 9.43065 17.4741 9.30231 17.1205 9.30231C16.6955 9.30231 16.4132 9.502 16.4132 9.80429C16.4132 10.0581 16.6099 10.2149 17.0976 10.3119L17.5311 10.4003C18.4038 10.5743 18.7803 10.9251 18.7803 11.5497ZM8.00261 12.8473C8.23081 12.8473 8.35915 12.7332 8.43898 12.4594L8.6557 11.8178H10.1416L10.3583 12.468C10.4353 12.7361 10.5637 12.8473 10.806 12.8473C11.057 12.8473 11.2367 12.679 11.2367 12.4423C11.2367 12.3567 11.2224 12.2797 11.1825 12.1685L10.0531 9.10557C9.93055 8.769 9.73087 8.62076 9.39437 8.62076C9.06923 8.62076 8.86674 8.77475 8.74696 9.10838L7.62335 12.1685C7.58627 12.274 7.5663 12.371 7.5663 12.4423C7.5663 12.6904 7.73458 12.8473 8.00261 12.8473ZM8.84396 11.1504L9.37727 9.46492H9.39724L9.94191 11.1504H8.84396ZM12.0753 12.7931H13.2161C14.4509 12.7931 15.1782 12.0259 15.1782 10.7197C15.1782 9.41354 14.4509 8.67775 13.2161 8.67775H12.0753C11.8043 8.67775 11.6447 8.84316 11.6447 9.12555V12.3424C11.6447 12.6276 11.8043 12.7931 12.0753 12.7931ZM12.5059 12.0801V9.38789H13.1134C13.872 9.38789 14.2998 9.86128 14.2998 10.7226C14.2998 11.6124 13.8834 12.0801 13.1134 12.0801H12.5059ZM7.62996 15.2267C7.62996 15.0027 7.81161 14.8211 8.03561 14.8211H13.8763C14.1003 14.8211 14.282 15.0027 14.282 15.2267C14.282 15.4507 14.1003 15.6323 13.8763 15.6323H8.03561C7.81161 15.6323 7.62996 15.4507 7.62996 15.2267ZM8.03561 17.2547C7.81161 17.2547 7.62996 17.4363 7.62996 17.6603C7.62996 17.8844 7.81161 18.066 8.03561 18.066H12.1728C12.3968 18.066 12.5784 17.8844 12.5784 17.6603C12.5784 17.4363 12.3968 17.2547 12.1728 17.2547H8.03561ZM7.62996 20.094C7.62996 19.87 7.81161 19.6884 8.03561 19.6884H12.1728C12.3968 19.6884 12.5784 19.87 12.5784 20.094C12.5784 20.318 12.3968 20.4996 12.1728 20.4996H8.03561C7.81161 20.4996 7.62996 20.318 7.62996 20.094Z" fill="url(#paint0_linear_14344_12306)"/>
<defs>
<linearGradient id="paint0_linear_14344_12306" x1="3.55" y1="-8.42192" x2="16.1812" y2="45.6973" gradientUnits="userSpaceOnUse">
<stop stop-color="#17E180"/>
<stop offset="1" stop-color="#009883"/>
</linearGradient>
</defs>
</svg>
